<?xml version="1.0" standalone="no"?>
<!DOCTYPE svg PUBLIC "-//W3C//DTD SVG 20010904//EN"
 "http://www.w3.org/TR/2001/REC-SVG-20010904/DTD/svg10.dtd">
<svg version="1.0" xmlns="http://www.w3.org/2000/svg"
 width="1024.000000pt" height="1024.000000pt" viewBox="0 0 1024.000000 1024.000000"
 preserveAspectRatio="xMidYMid meet">
<metadata>
Created by potrace 1.11, written by Peter Selinger 2001-2013
</metadata>
<g transform="translate(0.000000,1024.000000) scale(0.100000,-0.100000)"
fill="#000000" stroke="none">
<path d="M4895 9599 c-1085 -53 -2109 -498 -2897 -1258 -583 -561 -1015 -1301
-1218 -2086 -241 -931 -182 -1898 173 -2800 70 -179 249 -531 356 -703 303
-483 676 -888 1136 -1232 544 -407 1198 -691 1875 -814 511 -93 1091 -93 1600
0 1116 204 2118 824 2791 1726 624 836 930 1830 888 2882 -57 1437 -812 2765
-2022 3559 -573 376 -1253 623 -1928 701 -134 16 -486 37 -564 34 -22 0 -107
-4 -190 -9z m-1205 -3118 l1485 -559 0 -348 0 -348 -160 -63 c-794 -310 -2801
-1083 -2812 -1083 -11 0 -13 64 -11 357 l3 357 971 361 c1165 434 1121 418
1109 422 -6 2 -478 171 -1050 376 l-1040 372 -3 358 c-2 282 0 357 10 357 7 0
681 -252 1498 -559z m4390 -2981 l0 -290 -1455 0 -1455 0 0 290 0 290 1455 0
1455 0 0 -290z"/>
</g>
</svg>
